<svg viewBox="0 0 100 100" id="mySvg" xmlns="http://www.w3.org/2000/svg"><rect width="100" height="100" style="fill:white;stroke-width:0;stroke:rgb(0,0,0)"></rect><path fill="red" stroke="black" pathLength="200" stroke-width="0.3" d="M 0 100 H 5.882352941176471 M 0 94.11764705882354 V 100"></path><path fill="red" stroke="black" pathLength="200" stroke-width="0.3" d="M 0 88.23529411764706 V 94.11764705882354"></path><path fill="red" stroke="black" pathLength="200" stroke-width="0.3" d="M 0 82.35294117647058 V 88.23529411764706"></path><path fill="red" stroke="black" pathLength="200" stroke-width="0.3" d="M 0 76.47058823529412 V 82.35294117647058"></path><path fill="red" stroke="black" pathLength="200" stroke-width="0.3" d="M 0 70.58823529411765 V 76.47058823529412"></path><path fill="red" stroke="black" pathLength="200" stroke-width="0.3" d="M 0 64.70588235294117 V 70.58823529411765"></path><path fill="red" stroke="black" pathLength="200" stroke-width="0.3" d="M 0 58.8235294117647 V 64.70588235294117"></path><path fill="red" stroke="black" pathLength="200" stroke-width="0.3" d="M 0 52.94117647058823 V 58.8235294117647"></path><path fill="red" stroke="black" pathLength="200" stroke-width="0.3" d="M 0 47.05882352941176 H 5.882352941176471 M 0 52.94117647058823 H 5.882352941176471 M 0 47.05882352941176 V 52.94117647058823"></path><path fill="red" stroke="black" pathLength="200" stroke-width="0.3" d="M 0 41.17647058823529 V 47.05882352941176"></path><path fill="red" stroke="black" pathLength="200" stroke-width="0.3" d="M 0 35.29411764705881 V 41.17647058823529"></path><path fill="red" stroke="black" pathLength="200" stroke-width="0.3" d="M 0 29.411764705882348 V 35.29411764705881"></path><path fill="red" stroke="black" pathLength="200" stroke-width="0.3" d="M 0 23.529411764705884 V 29.411764705882348"></path><path fill="red" stroke="black" pathLength="200" stroke-width="0.3" d="M 0 17.647058823529406 V 23.529411764705884"></path><path fill="red" stroke="black" pathLength="200" stroke-width="0.3" d="M 0 11.764705882352928 V 17.647058823529406"></path><path fill="red" stroke="black" pathLength="200" stroke-width="0.3" d="M 0 5.882352941176464 V 11.764705882352928"></path><path fill="red" stroke="black" pathLength="200" stroke-width="0.3" d="M 0 0 H 5.882352941176471 M 0 0 V 5.882352941176464"></path><path fill="red" stroke="black" pathLength="200" stroke-width="0.3" d="M 5.882352941176471 100 H 11.764705882352942 M 5.882352941176471 94.11764705882354 V 100"></path><path fill="red" stroke="black" pathLength="200" stroke-width="0.3" d="M 5.882352941176471 94.11764705882354 H 11.764705882352942 M 5.882352941176471 88.23529411764706 V 94.11764705882354"></path><path fill="red" stroke="black" pathLength="200" stroke-width="0.3" d="M 5.882352941176471 82.35294117647058 V 88.23529411764706"></path><path fill="red" stroke="black" pathLength="200" stroke-width="0.3" d="M 5.882352941176471 76.47058823529412 V 82.35294117647058"></path><path fill="red" stroke="black" pathLength="200" stroke-width="0.3" d="M 5.882352941176471 70.58823529411765 V 76.47058823529412"></path><path fill="red" stroke="black" pathLength="200" stroke-width="0.3" d="M 5.882352941176471 64.70588235294117 V 70.58823529411765"></path><path fill="red" stroke="black" pathLength="200" stroke-width="0.3" d="M 5.882352941176471 58.8235294117647 V 64.70588235294117"></path><path fill="red" stroke="black" pathLength="200" stroke-width="0.3" d="M 5.882352941176471 52.94117647058823 V 58.8235294117647"></path><path fill="red" stroke="black" pathLength="200" stroke-width="0.3" d="M 5.882352941176471 47.05882352941176 H 11.764705882352942 M 5.882352941176471 52.94117647058823 H 11.764705882352942"></path><path fill="red" stroke="black" pathLength="200" stroke-width="0.3" d="M 5.882352941176471 41.17647058823529 V 47.05882352941176"></path><path fill="red" stroke="black" pathLength="200" stroke-width="0.3" d="M 5.882352941176471 35.29411764705881 V 41.17647058823529"></path><path fill="red" stroke="black" pathLength="200" stroke-width="0.3" d="M 5.882352941176471 29.411764705882348 V 35.29411764705881"></path><path fill="red" stroke="black" pathLength="200" stroke-width="0.3" d="M 5.882352941176471 23.529411764705884 V 29.411764705882348"></path><path fill="red" stroke="black" pathLength="200" stroke-width="0.3" d="M 5.882352941176471 17.647058823529406 V 23.529411764705884"></path><path fill="red" stroke="black" pathLength="200" stroke-width="0.3" d="M 5.882352941176471 11.764705882352928 V 17.647058823529406"></path><path fill="red" stroke="black" pathLength="200" stroke-width="0.3" d="M 5.882352941176471 5.882352941176464 H 11.764705882352942 M 5.882352941176471 5.882352941176464 V 11.764705882352928"></path><path fill="red" stroke="black" pathLength="200" stroke-width="0.3" d="M 5.882352941176471 0 H 11.764705882352942 M 5.882352941176471 0 V 5.882352941176464"></path><path fill="red" stroke="black" pathLength="200" stroke-width="0.3" d="M 11.764705882352942 100 H 17.647058823529413"></path><path fill="red" stroke="black" pathLength="200" stroke-width="0.3" d="M 11.764705882352942 94.11764705882354 H 17.647058823529413 M 11.764705882352942 88.23529411764706 V 94.11764705882354"></path><path fill="red" stroke="black" pathLength="200" stroke-width="0.3" d="M 11.764705882352942 88.23529411764706 H 17.647058823529413 M 11.764705882352942 82.35294117647058 V 88.23529411764706"></path><path fill="red" stroke="black" pathLength="200" stroke-width="0.3" d="M 11.764705882352942 76.47058823529412 V 82.35294117647058"></path><path fill="red" stroke="black" pathLength="200" stroke-width="0.3" d="M 11.764705882352942 70.58823529411765 V 76.47058823529412"></path><path fill="red" stroke="black" pathLength="200" stroke-width="0.3" d="M 11.764705882352942 64.70588235294117 V 70.58823529411765"></path><path fill="red" stroke="black" pathLength="200" stroke-width="0.3" d="M 11.764705882352942 58.8235294117647 V 64.70588235294117"></path><path fill="red" stroke="black" pathLength="200" stroke-width="0.3" d="M 11.764705882352942 52.94117647058823 V 58.8235294117647"></path><path fill="red" stroke="black" pathLength="200" stroke-width="0.3" d="M 11.764705882352942 47.05882352941176 H 17.647058823529413 M 11.764705882352942 52.94117647058823 H 17.647058823529413"></path><path fill="red" stroke="black" pathLength="200" stroke-width="0.3" d="M 11.764705882352942 41.17647058823529 V 47.05882352941176"></path><path fill="red" stroke="black" pathLength="200" stroke-width="0.3" d="M 11.764705882352942 35.29411764705881 V 41.17647058823529"></path><path fill="red" stroke="black" pathLength="200" stroke-width="0.3" d="M 11.764705882352942 29.411764705882348 V 35.29411764705881"></path><path fill="red" stroke="black" pathLength="200" stroke-width="0.3" d="M 11.764705882352942 23.529411764705884 V 29.411764705882348"></path><path fill="red" stroke="black" pathLength="200" stroke-width="0.3" d="M 11.764705882352942 17.647058823529406 V 23.529411764705884"></path><path fill="red" stroke="black" pathLength="200" stroke-width="0.3" d="M 11.764705882352942 11.764705882352928 H 17.647058823529413 M 11.764705882352942 11.764705882352928 V 17.647058823529406"></path><path fill="red" stroke="black" pathLength="200" stroke-width="0.3" d="M 11.764705882352942 5.882352941176464 H 17.647058823529413 M 11.764705882352942 5.882352941176464 V 11.764705882352928"></path><path fill="red" stroke="black" pathLength="200" stroke-width="0.3" d="M 11.764705882352942 0 H 17.647058823529413"></path><path fill="red" stroke="black" pathLength="200" stroke-width="0.3" d="M 17.647058823529413 100 H 23.529411764705884"></path><path fill="red" stroke="black" pathLength="200" stroke-width="0.3" d="M 17.647058823529413 94.11764705882354 H 23.529411764705884"></path><path fill="red" stroke="black" pathLength="200" stroke-width="0.3" d="M 17.647058823529413 88.23529411764706 H 23.529411764705884 M 17.647058823529413 82.35294117647058 V 88.23529411764706"></path><path fill="red" stroke="black" pathLength="200" stroke-width="0.3" d="M 17.647058823529413 82.35294117647058 H 23.529411764705884 M 17.647058823529413 76.47058823529412 V 82.35294117647058"></path><path fill="red" stroke="black" pathLength="200" stroke-width="0.3" d="M 17.647058823529413 70.58823529411765 V 76.47058823529412"></path><path fill="red" stroke="black" pathLength="200" stroke-width="0.3" d="M 17.647058823529413 64.70588235294117 V 70.58823529411765"></path><path fill="red" stroke="black" pathLength="200" stroke-width="0.3" d="M 17.647058823529413 58.8235294117647 V 64.70588235294117"></path><path fill="red" stroke="black" pathLength="200" stroke-width="0.3" d="M 17.647058823529413 52.94117647058823 V 58.8235294117647"></path><path fill="red" stroke="black" pathLength="200" stroke-width="0.3" d="M 17.647058823529413 47.05882352941176 H 23.529411764705884 M 17.647058823529413 52.94117647058823 H 23.529411764705884"></path><path fill="red" stroke="black" pathLength="200" stroke-width="0.3" d="M 17.647058823529413 41.17647058823529 V 47.05882352941176"></path><path fill="red" stroke="black" pathLength="200" stroke-width="0.3" d="M 17.647058823529413 35.29411764705881 V 41.17647058823529"></path><path fill="red" stroke="black" pathLength="200" stroke-width="0.3" d="M 17.647058823529413 29.411764705882348 V 35.29411764705881"></path><path fill="red" stroke="black" pathLength="200" stroke-width="0.3" d="M 17.647058823529413 23.529411764705884 V 29.411764705882348"></path><path fill="red" stroke="black" pathLength="200" stroke-width="0.3" d="M 17.647058823529413 17.647058823529406 H 23.529411764705884 M 17.647058823529413 17.647058823529406 V 23.529411764705884"></path><path fill="red" stroke="black" pathLength="200" stroke-width="0.3" d="M 17.647058823529413 11.764705882352928 H 23.529411764705884 M 17.647058823529413 11.764705882352928 V 17.647058823529406"></path><path fill="red" stroke="black" pathLength="200" stroke-width="0.3" d="M 17.647058823529413 5.882352941176464 H 23.529411764705884"></path><path fill="red" stroke="black" pathLength="200" stroke-width="0.3" d="M 17.647058823529413 0 H 23.529411764705884"></path><path fill="red" stroke="black" pathLength="200" stroke-width="0.3" d="M 23.529411764705884 100 H 29.411764705882355"></path><path fill="red" stroke="black" pathLength="200" stroke-width="0.3" d="M 23.529411764705884 94.11764705882354 H 29.411764705882355"></path><path fill="red" stroke="black" pathLength="200" stroke-width="0.3" d="M 23.529411764705884 88.23529411764706 H 29.411764705882355"></path><path fill="red" stroke="black" pathLength="200" stroke-width="0.3" d="M 23.529411764705884 82.35294117647058 H 29.411764705882355 M 23.529411764705884 76.47058823529412 V 82.35294117647058"></path><path fill="red" stroke="black" pathLength="200" stroke-width="0.3" d="M 23.529411764705884 76.47058823529412 H 29.411764705882355 M 23.529411764705884 70.58823529411765 V 76.47058823529412"></path><path fill="red" stroke="black" pathLength="200" stroke-width="0.3" d="M 23.529411764705884 64.70588235294117 V 70.58823529411765"></path><path fill="red" stroke="black" pathLength="200" stroke-width="0.3" d="M 23.529411764705884 58.8235294117647 V 64.70588235294117"></path><path fill="red" stroke="black" pathLength="200" stroke-width="0.3" d="M 23.529411764705884 52.94117647058823 V 58.8235294117647"></path><path fill="red" stroke="black" pathLength="200" stroke-width="0.3" d="M 23.529411764705884 47.05882352941176 H 29.411764705882355 M 23.529411764705884 52.94117647058823 H 29.411764705882355"></path><path fill="red" stroke="black" pathLength="200" stroke-width="0.3" d="M 23.529411764705884 41.17647058823529 V 47.05882352941176"></path><path fill="red" stroke="black" pathLength="200" stroke-width="0.3" d="M 23.529411764705884 35.29411764705881 V 41.17647058823529"></path><path fill="red" stroke="black" pathLength="200" stroke-width="0.3" d="M 23.529411764705884 29.411764705882348 V 35.29411764705881"></path><path fill="red" stroke="black" pathLength="200" stroke-width="0.3" d="M 23.529411764705884 23.529411764705884 H 29.411764705882355 M 23.529411764705884 23.529411764705884 V 29.411764705882348"></path><path fill="red" stroke="black" pathLength="200" stroke-width="0.3" d="M 23.529411764705884 17.647058823529406 H 29.411764705882355 M 23.529411764705884 17.647058823529406 V 23.529411764705884"></path><path fill="red" stroke="black" pathLength="200" stroke-width="0.3" d="M 23.529411764705884 11.764705882352928 H 29.411764705882355"></path><path fill="red" stroke="black" pathLength="200" stroke-width="0.3" d="M 23.529411764705884 5.882352941176464 H 29.411764705882355"></path><path fill="red" stroke="black" pathLength="200" stroke-width="0.3" d="M 23.529411764705884 0 H 29.411764705882355"></path><path fill="red" stroke="black" pathLength="200" stroke-width="0.3" d="M 29.411764705882355 100 H 35.294117647058826"></path><path fill="red" stroke="black" pathLength="200" stroke-width="0.3" d="M 29.411764705882355 94.11764705882354 H 35.294117647058826"></path><path fill="red" stroke="black" pathLength="200" stroke-width="0.3" d="M 29.411764705882355 88.23529411764706 H 35.294117647058826"></path><path fill="red" stroke="black" pathLength="200" stroke-width="0.3" d="M 29.411764705882355 82.35294117647058 H 35.294117647058826"></path><path fill="red" stroke="black" pathLength="200" stroke-width="0.3" d="M 29.411764705882355 76.47058823529412 H 35.294117647058826 M 29.411764705882355 70.58823529411765 V 76.47058823529412"></path><path fill="red" stroke="black" pathLength="200" stroke-width="0.3" d="M 29.411764705882355 70.58823529411765 H 35.294117647058826 M 29.411764705882355 64.70588235294117 V 70.58823529411765"></path><path fill="red" stroke="black" pathLength="200" stroke-width="0.3" d="M 29.411764705882355 58.8235294117647 V 64.70588235294117"></path><path fill="red" stroke="black" pathLength="200" stroke-width="0.3" d="M 29.411764705882355 52.94117647058823 V 58.8235294117647"></path><path fill="red" stroke="black" pathLength="200" stroke-width="0.3" d="M 29.411764705882355 47.05882352941176 H 35.294117647058826 M 29.411764705882355 52.94117647058823 H 35.294117647058826"></path><path fill="red" stroke="black" pathLength="200" stroke-width="0.3" d="M 29.411764705882355 41.17647058823529 V 47.05882352941176"></path><path fill="red" stroke="black" pathLength="200" stroke-width="0.3" d="M 29.411764705882355 35.29411764705881 V 41.17647058823529"></path><path fill="red" stroke="black" pathLength="200" stroke-width="0.3" d="M 29.411764705882355 29.411764705882348 H 35.294117647058826 M 29.411764705882355 29.411764705882348 V 35.29411764705881"></path><path fill="red" stroke="black" pathLength="200" stroke-width="0.3" d="M 29.411764705882355 23.529411764705884 H 35.294117647058826 M 29.411764705882355 23.529411764705884 V 29.411764705882348"></path><path fill="red" stroke="black" pathLength="200" stroke-width="0.3" d="M 29.411764705882355 17.647058823529406 H 35.294117647058826"></path><path fill="red" stroke="black" pathLength="200" stroke-width="0.3" d="M 29.411764705882355 11.764705882352928 H 35.294117647058826"></path><path fill="red" stroke="black" pathLength="200" stroke-width="0.3" d="M 29.411764705882355 5.882352941176464 H 35.294117647058826"></path><path fill="red" stroke="black" pathLength="200" stroke-width="0.3" d="M 29.411764705882355 0 H 35.294117647058826"></path><path fill="red" stroke="black" pathLength="200" stroke-width="0.3" d="M 35.294117647058826 100 H 41.1764705882353"></path><path fill="red" stroke="black" pathLength="200" stroke-width="0.3" d="M 35.294117647058826 94.11764705882354 H 41.1764705882353"></path><path fill="red" stroke="black" pathLength="200" stroke-width="0.3" d="M 35.294117647058826 88.23529411764706 H 41.1764705882353"></path><path fill="red" stroke="black" pathLength="200" stroke-width="0.3" d="M 35.294117647058826 82.35294117647058 H 41.1764705882353"></path><path fill="red" stroke="black" pathLength="200" stroke-width="0.3" d="M 35.294117647058826 76.47058823529412 H 41.1764705882353"></path><path fill="red" stroke="black" pathLength="200" stroke-width="0.3" d="M 35.294117647058826 70.58823529411765 H 41.1764705882353 M 35.294117647058826 64.70588235294117 V 70.58823529411765"></path><path fill="red" stroke="black" pathLength="200" stroke-width="0.3" d="M 35.294117647058826 64.70588235294117 H 41.1764705882353 M 35.294117647058826 58.8235294117647 V 64.70588235294117"></path><path fill="red" stroke="black" pathLength="200" stroke-width="0.3" d="M 35.294117647058826 52.94117647058823 V 58.8235294117647"></path><path fill="red" stroke="black" pathLength="200" stroke-width="0.3" d="M 35.294117647058826 47.05882352941176 H 41.1764705882353 M 35.294117647058826 52.94117647058823 H 41.1764705882353"></path><path fill="red" stroke="black" pathLength="200" stroke-width="0.3" d="M 35.294117647058826 41.17647058823529 V 47.05882352941176"></path><path fill="red" stroke="black" pathLength="200" stroke-width="0.3" d="M 35.294117647058826 35.29411764705881 H 41.1764705882353 M 35.294117647058826 35.29411764705881 V 41.17647058823529"></path><path fill="red" stroke="black" pathLength="200" stroke-width="0.3" d="M 35.294117647058826 29.411764705882348 H 41.1764705882353 M 35.294117647058826 29.411764705882348 V 35.29411764705881"></path><path fill="red" stroke="black" pathLength="200" stroke-width="0.3" d="M 35.294117647058826 23.529411764705884 H 41.1764705882353"></path><path fill="red" stroke="black" pathLength="200" stroke-width="0.3" d="M 35.294117647058826 17.647058823529406 H 41.1764705882353"></path><path fill="red" stroke="black" pathLength="200" stroke-width="0.3" d="M 35.294117647058826 11.764705882352928 H 41.1764705882353"></path><path fill="red" stroke="black" pathLength="200" stroke-width="0.3" d="M 35.294117647058826 5.882352941176464 H 41.1764705882353"></path><path fill="red" stroke="black" pathLength="200" stroke-width="0.3" d="M 35.294117647058826 0 H 41.1764705882353"></path><path fill="red" stroke="black" pathLength="200" stroke-width="0.3" d="M 41.1764705882353 100 H 47.05882352941177"></path><path fill="red" stroke="black" pathLength="200" stroke-width="0.3" d="M 41.1764705882353 94.11764705882354 H 47.05882352941177"></path><path fill="red" stroke="black" pathLength="200" stroke-width="0.3" d="M 41.1764705882353 88.23529411764706 H 47.05882352941177"></path><path fill="red" stroke="black" pathLength="200" stroke-width="0.3" d="M 41.1764705882353 82.35294117647058 H 47.05882352941177"></path><path fill="red" stroke="black" pathLength="200" stroke-width="0.3" d="M 41.1764705882353 76.47058823529412 H 47.05882352941177"></path><path fill="red" stroke="black" pathLength="200" stroke-width="0.3" d="M 41.1764705882353 70.58823529411765 H 47.05882352941177"></path><path fill="red" stroke="black" pathLength="200" stroke-width="0.3" d="M 41.1764705882353 64.70588235294117 H 47.05882352941177 M 41.1764705882353 58.8235294117647 V 64.70588235294117"></path><path fill="red" stroke="black" pathLength="200" stroke-width="0.3" d="M 41.1764705882353 52.94117647058823 V 58.8235294117647"></path><path fill="red" stroke="black" pathLength="200" stroke-width="0.3" d="M 41.1764705882353 47.05882352941176 H 47.05882352941177 M 41.1764705882353 52.94117647058823 H 47.05882352941177"></path><path fill="red" stroke="black" pathLength="200" stroke-width="0.3" d="M 41.1764705882353 41.17647058823529 V 47.05882352941176"></path><path fill="red" stroke="black" pathLength="200" stroke-width="0.3" d="M 41.1764705882353 35.29411764705881 H 47.05882352941177 M 41.1764705882353 35.29411764705881 V 41.17647058823529"></path><path fill="red" stroke="black" pathLength="200" stroke-width="0.3" d="M 41.1764705882353 29.411764705882348 H 47.05882352941177"></path><path fill="red" stroke="black" pathLength="200" stroke-width="0.3" d="M 41.1764705882353 23.529411764705884 H 47.05882352941177"></path><path fill="red" stroke="black" pathLength="200" stroke-width="0.3" d="M 41.1764705882353 17.647058823529406 H 47.05882352941177"></path><path fill="red" stroke="black" pathLength="200" stroke-width="0.3" d="M 41.1764705882353 11.764705882352928 H 47.05882352941177"></path><path fill="red" stroke="black" pathLength="200" stroke-width="0.3" d="M 41.1764705882353 5.882352941176464 H 47.05882352941177"></path><path fill="red" stroke="black" pathLength="200" stroke-width="0.3" d="M 41.1764705882353 0 H 47.05882352941177"></path><path fill="red" stroke="black" pathLength="200" stroke-width="0.3" d="M 47.05882352941177 100 H 52.94117647058824 M 47.05882352941177 94.11764705882354 V 100 M 52.94117647058824 94.11764705882354 V 100"></path><path fill="red" stroke="black" pathLength="200" stroke-width="0.3" d="M 47.05882352941177 88.23529411764706 V 94.11764705882354 M 52.94117647058824 88.23529411764706 V 94.11764705882354"></path><path fill="red" stroke="black" pathLength="200" stroke-width="0.3" d="M 47.05882352941177 82.35294117647058 V 88.23529411764706 M 52.94117647058824 82.35294117647058 V 88.23529411764706"></path><path fill="red" stroke="black" pathLength="200" stroke-width="0.3" d="M 47.05882352941177 76.47058823529412 V 82.35294117647058 M 52.94117647058824 76.47058823529412 V 82.35294117647058"></path><path fill="red" stroke="black" pathLength="200" stroke-width="0.3" d="M 47.05882352941177 70.58823529411765 V 76.47058823529412 M 52.94117647058824 70.58823529411765 V 76.47058823529412"></path><path fill="red" stroke="black" pathLength="200" stroke-width="0.3" d="M 47.05882352941177 64.70588235294117 V 70.58823529411765 M 52.94117647058824 64.70588235294117 V 70.58823529411765"></path><path fill="red" stroke="black" pathLength="200" stroke-width="0.3" d="M 47.05882352941177 58.8235294117647 V 64.70588235294117 M 52.94117647058824 58.8235294117647 V 64.70588235294117"></path><path fill="red" stroke="black" pathLength="200" stroke-width="0.3" d="M 47.05882352941177 52.94117647058823 V 58.8235294117647 M 52.94117647058824 52.94117647058823 V 58.8235294117647"></path><path fill="red" stroke="black" pathLength="200" stroke-width="0.3" d="M 47.05882352941177 47.05882352941176 H 52.94117647058824 M 47.05882352941177 52.94117647058823 H 52.94117647058824 M 47.05882352941177 47.05882352941176 V 52.94117647058823 M 52.94117647058824 47.05882352941176 V 52.94117647058823"></path><path fill="red" stroke="black" pathLength="200" stroke-width="0.3" d="M 47.05882352941177 41.17647058823529 V 47.05882352941176 M 52.94117647058824 41.17647058823529 V 47.05882352941176"></path><path fill="red" stroke="black" pathLength="200" stroke-width="0.3" d="M 47.05882352941177 35.29411764705881 V 41.17647058823529 M 52.94117647058824 35.29411764705881 V 41.17647058823529"></path><path fill="red" stroke="black" pathLength="200" stroke-width="0.3" d="M 47.05882352941177 29.411764705882348 V 35.29411764705881 M 52.94117647058824 29.411764705882348 V 35.29411764705881"></path><path fill="red" stroke="black" pathLength="200" stroke-width="0.3" d="M 47.05882352941177 23.529411764705884 V 29.411764705882348 M 52.94117647058824 23.529411764705884 V 29.411764705882348"></path><path fill="red" stroke="black" pathLength="200" stroke-width="0.3" d="M 47.05882352941177 17.647058823529406 V 23.529411764705884 M 52.94117647058824 17.647058823529406 V 23.529411764705884"></path><path fill="red" stroke="black" pathLength="200" stroke-width="0.3" d="M 47.05882352941177 11.764705882352928 V 17.647058823529406 M 52.94117647058824 11.764705882352928 V 17.647058823529406"></path><path fill="red" stroke="black" pathLength="200" stroke-width="0.3" d="M 47.05882352941177 5.882352941176464 V 11.764705882352928 M 52.94117647058824 5.882352941176464 V 11.764705882352928"></path><path fill="red" stroke="black" pathLength="200" stroke-width="0.3" d="M 47.05882352941177 0 H 52.94117647058824 M 47.05882352941177 0 V 5.882352941176464 M 52.94117647058824 0 V 5.882352941176464"></path><path fill="red" stroke="black" pathLength="200" stroke-width="0.3" d="M 52.94117647058824 100 H 58.82352941176471"></path><path fill="red" stroke="black" pathLength="200" stroke-width="0.3" d="M 52.94117647058824 94.11764705882354 H 58.82352941176471"></path><path fill="red" stroke="black" pathLength="200" stroke-width="0.3" d="M 52.94117647058824 88.23529411764706 H 58.82352941176471"></path><path fill="red" stroke="black" pathLength="200" stroke-width="0.3" d="M 52.94117647058824 82.35294117647058 H 58.82352941176471"></path><path fill="red" stroke="black" pathLength="200" stroke-width="0.3" d="M 52.94117647058824 76.47058823529412 H 58.82352941176471"></path><path fill="red" stroke="black" pathLength="200" stroke-width="0.3" d="M 52.94117647058824 70.58823529411765 H 58.82352941176471"></path><path fill="red" stroke="black" pathLength="200" stroke-width="0.3" d="M 52.94117647058824 64.70588235294117 H 58.82352941176471 M 58.82352941176471 58.8235294117647 V 64.70588235294117"></path><path fill="red" stroke="black" pathLength="200" stroke-width="0.3" d="M 58.82352941176471 52.94117647058823 V 58.8235294117647"></path><path fill="red" stroke="black" pathLength="200" stroke-width="0.3" d="M 52.94117647058824 47.05882352941176 H 58.82352941176471 M 52.94117647058824 52.94117647058823 H 58.82352941176471"></path><path fill="red" stroke="black" pathLength="200" stroke-width="0.3" d="M 58.82352941176471 41.17647058823529 V 47.05882352941176"></path><path fill="red" stroke="black" pathLength="200" stroke-width="0.3" d="M 52.94117647058824 35.29411764705881 H 58.82352941176471 M 58.82352941176471 35.29411764705881 V 41.17647058823529"></path><path fill="red" stroke="black" pathLength="200" stroke-width="0.3" d="M 52.94117647058824 29.411764705882348 H 58.82352941176471"></path><path fill="red" stroke="black" pathLength="200" stroke-width="0.3" d="M 52.94117647058824 23.529411764705884 H 58.82352941176471"></path><path fill="red" stroke="black" pathLength="200" stroke-width="0.3" d="M 52.94117647058824 17.647058823529406 H 58.82352941176471"></path><path fill="red" stroke="black" pathLength="200" stroke-width="0.3" d="M 52.94117647058824 11.764705882352928 H 58.82352941176471"></path><path fill="red" stroke="black" pathLength="200" stroke-width="0.3" d="M 52.94117647058824 5.882352941176464 H 58.82352941176471"></path><path fill="red" stroke="black" pathLength="200" stroke-width="0.3" d="M 52.94117647058824 0 H 58.82352941176471"></path><path fill="red" stroke="black" pathLength="200" stroke-width="0.3" d="M 58.82352941176471 100 H 64.70588235294119"></path><path fill="red" stroke="black" pathLength="200" stroke-width="0.3" d="M 58.82352941176471 94.11764705882354 H 64.70588235294119"></path><path fill="red" stroke="black" pathLength="200" stroke-width="0.3" d="M 58.82352941176471 88.23529411764706 H 64.70588235294119"></path><path fill="red" stroke="black" pathLength="200" stroke-width="0.3" d="M 58.82352941176471 82.35294117647058 H 64.70588235294119"></path><path fill="red" stroke="black" pathLength="200" stroke-width="0.3" d="M 58.82352941176471 76.47058823529412 H 64.70588235294119"></path><path fill="red" stroke="black" pathLength="200" stroke-width="0.3" d="M 58.82352941176471 70.58823529411765 H 64.70588235294119 M 64.70588235294119 64.70588235294117 V 70.58823529411765"></path><path fill="red" stroke="black" pathLength="200" stroke-width="0.3" d="M 58.82352941176471 64.70588235294117 H 64.70588235294119 M 64.70588235294119 58.8235294117647 V 64.70588235294117"></path><path fill="red" stroke="black" pathLength="200" stroke-width="0.3" d="M 64.70588235294119 52.94117647058823 V 58.8235294117647"></path><path fill="red" stroke="black" pathLength="200" stroke-width="0.3" d="M 58.82352941176471 47.05882352941176 H 64.70588235294119 M 58.82352941176471 52.94117647058823 H 64.70588235294119"></path><path fill="red" stroke="black" pathLength="200" stroke-width="0.3" d="M 64.70588235294119 41.17647058823529 V 47.05882352941176"></path><path fill="red" stroke="black" pathLength="200" stroke-width="0.3" d="M 58.82352941176471 35.29411764705881 H 64.70588235294119 M 64.70588235294119 35.29411764705881 V 41.17647058823529"></path><path fill="red" stroke="black" pathLength="200" stroke-width="0.3" d="M 58.82352941176471 29.411764705882348 H 64.70588235294119 M 64.70588235294119 29.411764705882348 V 35.29411764705881"></path><path fill="red" stroke="black" pathLength="200" stroke-width="0.3" d="M 58.82352941176471 23.529411764705884 H 64.70588235294119"></path><path fill="red" stroke="black" pathLength="200" stroke-width="0.3" d="M 58.82352941176471 17.647058823529406 H 64.70588235294119"></path><path fill="red" stroke="black" pathLength="200" stroke-width="0.3" d="M 58.82352941176471 11.764705882352928 H 64.70588235294119"></path><path fill="red" stroke="black" pathLength="200" stroke-width="0.3" d="M 58.82352941176471 5.882352941176464 H 64.70588235294119"></path><path fill="red" stroke="black" pathLength="200" stroke-width="0.3" d="M 58.82352941176471 0 H 64.70588235294119"></path><path fill="red" stroke="black" pathLength="200" stroke-width="0.3" d="M 64.70588235294119 100 H 70.58823529411765"></path><path fill="red" stroke="black" pathLength="200" stroke-width="0.3" d="M 64.70588235294119 94.11764705882354 H 70.58823529411765"></path><path fill="red" stroke="black" pathLength="200" stroke-width="0.3" d="M 64.70588235294119 88.23529411764706 H 70.58823529411765"></path><path fill="red" stroke="black" pathLength="200" stroke-width="0.3" d="M 64.70588235294119 82.35294117647058 H 70.58823529411765"></path><path fill="red" stroke="black" pathLength="200" stroke-width="0.3" d="M 64.70588235294119 76.47058823529412 H 70.58823529411765 M 70.58823529411765 70.58823529411765 V 76.47058823529412"></path><path fill="red" stroke="black" pathLength="200" stroke-width="0.3" d="M 64.70588235294119 70.58823529411765 H 70.58823529411765 M 70.58823529411765 64.70588235294117 V 70.58823529411765"></path><path fill="red" stroke="black" pathLength="200" stroke-width="0.3" d="M 70.58823529411765 58.8235294117647 V 64.70588235294117"></path><path fill="red" stroke="black" pathLength="200" stroke-width="0.3" d="M 70.58823529411765 52.94117647058823 V 58.8235294117647"></path><path fill="red" stroke="black" pathLength="200" stroke-width="0.3" d="M 64.70588235294119 47.05882352941176 H 70.58823529411765 M 64.70588235294119 52.94117647058823 H 70.58823529411765"></path><path fill="red" stroke="black" pathLength="200" stroke-width="0.3" d="M 70.58823529411765 41.17647058823529 V 47.05882352941176"></path><path fill="red" stroke="black" pathLength="200" stroke-width="0.3" d="M 70.58823529411765 35.29411764705881 V 41.17647058823529"></path><path fill="red" stroke="black" pathLength="200" stroke-width="0.3" d="M 64.70588235294119 29.411764705882348 H 70.58823529411765 M 70.58823529411765 29.411764705882348 V 35.29411764705881"></path><path fill="red" stroke="black" pathLength="200" stroke-width="0.3" d="M 64.70588235294119 23.529411764705884 H 70.58823529411765 M 70.58823529411765 23.529411764705884 V 29.411764705882348"></path><path fill="red" stroke="black" pathLength="200" stroke-width="0.3" d="M 64.70588235294119 17.647058823529406 H 70.58823529411765"></path><path fill="red" stroke="black" pathLength="200" stroke-width="0.3" d="M 64.70588235294119 11.764705882352928 H 70.58823529411765"></path><path fill="red" stroke="black" pathLength="200" stroke-width="0.3" d="M 64.70588235294119 5.882352941176464 H 70.58823529411765"></path><path fill="red" stroke="black" pathLength="200" stroke-width="0.3" d="M 64.70588235294119 0 H 70.58823529411765"></path><path fill="red" stroke="black" pathLength="200" stroke-width="0.3" d="M 70.58823529411765 100 H 76.47058823529412"></path><path fill="red" stroke="black" pathLength="200" stroke-width="0.3" d="M 70.58823529411765 94.11764705882354 H 76.47058823529412"></path><path fill="red" stroke="black" pathLength="200" stroke-width="0.3" d="M 70.58823529411765 88.23529411764706 H 76.47058823529412"></path><path fill="red" stroke="black" pathLength="200" stroke-width="0.3" d="M 70.58823529411765 82.35294117647058 H 76.47058823529412 M 76.47058823529412 76.47058823529412 V 82.35294117647058"></path><path fill="red" stroke="black" pathLength="200" stroke-width="0.3" d="M 70.58823529411765 76.47058823529412 H 76.47058823529412 M 76.47058823529412 70.58823529411765 V 76.47058823529412"></path><path fill="red" stroke="black" pathLength="200" stroke-width="0.3" d="M 76.47058823529412 64.70588235294117 V 70.58823529411765"></path><path fill="red" stroke="black" pathLength="200" stroke-width="0.3" d="M 76.47058823529412 58.8235294117647 V 64.70588235294117"></path><path fill="red" stroke="black" pathLength="200" stroke-width="0.3" d="M 76.47058823529412 52.94117647058823 V 58.8235294117647"></path><path fill="red" stroke="black" pathLength="200" stroke-width="0.3" d="M 70.58823529411765 47.05882352941176 H 76.47058823529412 M 70.58823529411765 52.94117647058823 H 76.47058823529412"></path><path fill="red" stroke="black" pathLength="200" stroke-width="0.3" d="M 76.47058823529412 41.17647058823529 V 47.05882352941176"></path><path fill="red" stroke="black" pathLength="200" stroke-width="0.3" d="M 76.47058823529412 35.29411764705881 V 41.17647058823529"></path><path fill="red" stroke="black" pathLength="200" stroke-width="0.3" d="M 76.47058823529412 29.411764705882348 V 35.29411764705881"></path><path fill="red" stroke="black" pathLength="200" stroke-width="0.3" d="M 70.58823529411765 23.529411764705884 H 76.47058823529412 M 76.47058823529412 23.529411764705884 V 29.411764705882348"></path><path fill="red" stroke="black" pathLength="200" stroke-width="0.3" d="M 70.58823529411765 17.647058823529406 H 76.47058823529412 M 76.47058823529412 17.647058823529406 V 23.529411764705884"></path><path fill="red" stroke="black" pathLength="200" stroke-width="0.3" d="M 70.58823529411765 11.764705882352928 H 76.47058823529412"></path><path fill="red" stroke="black" pathLength="200" stroke-width="0.3" d="M 70.58823529411765 5.882352941176464 H 76.47058823529412"></path><path fill="red" stroke="black" pathLength="200" stroke-width="0.3" d="M 70.58823529411765 0 H 76.47058823529412"></path><path fill="red" stroke="black" pathLength="200" stroke-width="0.3" d="M 76.47058823529412 100 H 82.3529411764706"></path><path fill="red" stroke="black" pathLength="200" stroke-width="0.3" d="M 76.47058823529412 94.11764705882354 H 82.3529411764706"></path><path fill="red" stroke="black" pathLength="200" stroke-width="0.3" d="M 76.47058823529412 88.23529411764706 H 82.3529411764706 M 82.3529411764706 82.35294117647058 V 88.23529411764706"></path><path fill="red" stroke="black" pathLength="200" stroke-width="0.3" d="M 76.47058823529412 82.35294117647058 H 82.3529411764706 M 82.3529411764706 76.47058823529412 V 82.35294117647058"></path><path fill="red" stroke="black" pathLength="200" stroke-width="0.3" d="M 82.3529411764706 70.58823529411765 V 76.47058823529412"></path><path fill="red" stroke="black" pathLength="200" stroke-width="0.3" d="M 82.3529411764706 64.70588235294117 V 70.58823529411765"></path><path fill="red" stroke="black" pathLength="200" stroke-width="0.3" d="M 82.3529411764706 58.8235294117647 V 64.70588235294117"></path><path fill="red" stroke="black" pathLength="200" stroke-width="0.3" d="M 82.3529411764706 52.94117647058823 V 58.8235294117647"></path><path fill="red" stroke="black" pathLength="200" stroke-width="0.3" d="M 76.47058823529412 47.05882352941176 H 82.3529411764706 M 76.47058823529412 52.94117647058823 H 82.3529411764706"></path><path fill="red" stroke="black" pathLength="200" stroke-width="0.3" d="M 82.3529411764706 41.17647058823529 V 47.05882352941176"></path><path fill="red" stroke="black" pathLength="200" stroke-width="0.3" d="M 82.3529411764706 35.29411764705881 V 41.17647058823529"></path><path fill="red" stroke="black" pathLength="200" stroke-width="0.3" d="M 82.3529411764706 29.411764705882348 V 35.29411764705881"></path><path fill="red" stroke="black" pathLength="200" stroke-width="0.3" d="M 82.3529411764706 23.529411764705884 V 29.411764705882348"></path><path fill="red" stroke="black" pathLength="200" stroke-width="0.3" d="M 76.47058823529412 17.647058823529406 H 82.3529411764706 M 82.3529411764706 17.647058823529406 V 23.529411764705884"></path><path fill="red" stroke="black" pathLength="200" stroke-width="0.3" d="M 76.47058823529412 11.764705882352928 H 82.3529411764706 M 82.3529411764706 11.764705882352928 V 17.647058823529406"></path><path fill="red" stroke="black" pathLength="200" stroke-width="0.3" d="M 76.47058823529412 5.882352941176464 H 82.3529411764706"></path><path fill="red" stroke="black" pathLength="200" stroke-width="0.3" d="M 76.47058823529412 0 H 82.3529411764706"></path><path fill="red" stroke="black" pathLength="200" stroke-width="0.3" d="M 82.3529411764706 100 H 88.23529411764707"></path><path fill="red" stroke="black" pathLength="200" stroke-width="0.3" d="M 82.3529411764706 94.11764705882354 H 88.23529411764707 M 88.23529411764707 88.23529411764706 V 94.11764705882354"></path><path fill="red" stroke="black" pathLength="200" stroke-width="0.3" d="M 82.3529411764706 88.23529411764706 H 88.23529411764707 M 88.23529411764707 82.35294117647058 V 88.23529411764706"></path><path fill="red" stroke="black" pathLength="200" stroke-width="0.3" d="M 88.23529411764707 76.47058823529412 V 82.35294117647058"></path><path fill="red" stroke="black" pathLength="200" stroke-width="0.3" d="M 88.23529411764707 70.58823529411765 V 76.47058823529412"></path><path fill="red" stroke="black" pathLength="200" stroke-width="0.3" d="M 88.23529411764707 64.70588235294117 V 70.58823529411765"></path><path fill="red" stroke="black" pathLength="200" stroke-width="0.3" d="M 88.23529411764707 58.8235294117647 V 64.70588235294117"></path><path fill="red" stroke="black" pathLength="200" stroke-width="0.3" d="M 88.23529411764707 52.94117647058823 V 58.8235294117647"></path><path fill="red" stroke="black" pathLength="200" stroke-width="0.3" d="M 82.3529411764706 47.05882352941176 H 88.23529411764707 M 82.3529411764706 52.94117647058823 H 88.23529411764707"></path><path fill="red" stroke="black" pathLength="200" stroke-width="0.3" d="M 88.23529411764707 41.17647058823529 V 47.05882352941176"></path><path fill="red" stroke="black" pathLength="200" stroke-width="0.3" d="M 88.23529411764707 35.29411764705881 V 41.17647058823529"></path><path fill="red" stroke="black" pathLength="200" stroke-width="0.3" d="M 88.23529411764707 29.411764705882348 V 35.29411764705881"></path><path fill="red" stroke="black" pathLength="200" stroke-width="0.3" d="M 88.23529411764707 23.529411764705884 V 29.411764705882348"></path><path fill="red" stroke="black" pathLength="200" stroke-width="0.3" d="M 88.23529411764707 17.647058823529406 V 23.529411764705884"></path><path fill="red" stroke="black" pathLength="200" stroke-width="0.3" d="M 82.3529411764706 11.764705882352928 H 88.23529411764707 M 88.23529411764707 11.764705882352928 V 17.647058823529406"></path><path fill="red" stroke="black" pathLength="200" stroke-width="0.3" d="M 82.3529411764706 5.882352941176464 H 88.23529411764707 M 88.23529411764707 5.882352941176464 V 11.764705882352928"></path><path fill="red" stroke="black" pathLength="200" stroke-width="0.3" d="M 82.3529411764706 0 H 88.23529411764707"></path><path fill="red" stroke="black" pathLength="200" stroke-width="0.3" d="M 88.23529411764707 100 H 94.11764705882354 M 94.11764705882354 94.11764705882354 V 100"></path><path fill="red" stroke="black" pathLength="200" stroke-width="0.3" d="M 88.23529411764707 94.11764705882354 H 94.11764705882354 M 94.11764705882354 88.23529411764706 V 94.11764705882354"></path><path fill="red" stroke="black" pathLength="200" stroke-width="0.3" d="M 94.11764705882354 82.35294117647058 V 88.23529411764706"></path><path fill="red" stroke="black" pathLength="200" stroke-width="0.3" d="M 94.11764705882354 76.47058823529412 V 82.35294117647058"></path><path fill="red" stroke="black" pathLength="200" stroke-width="0.3" d="M 94.11764705882354 70.58823529411765 V 76.47058823529412"></path><path fill="red" stroke="black" pathLength="200" stroke-width="0.3" d="M 94.11764705882354 64.70588235294117 V 70.58823529411765"></path><path fill="red" stroke="black" pathLength="200" stroke-width="0.3" d="M 94.11764705882354 58.8235294117647 V 64.70588235294117"></path><path fill="red" stroke="black" pathLength="200" stroke-width="0.3" d="M 94.11764705882354 52.94117647058823 V 58.8235294117647"></path><path fill="red" stroke="black" pathLength="200" stroke-width="0.3" d="M 88.23529411764707 47.05882352941176 H 94.11764705882354 M 88.23529411764707 52.94117647058823 H 94.11764705882354"></path><path fill="red" stroke="black" pathLength="200" stroke-width="0.3" d="M 94.11764705882354 41.17647058823529 V 47.05882352941176"></path><path fill="red" stroke="black" pathLength="200" stroke-width="0.3" d="M 94.11764705882354 35.29411764705881 V 41.17647058823529"></path><path fill="red" stroke="black" pathLength="200" stroke-width="0.3" d="M 94.11764705882354 29.411764705882348 V 35.29411764705881"></path><path fill="red" stroke="black" pathLength="200" stroke-width="0.3" d="M 94.11764705882354 23.529411764705884 V 29.411764705882348"></path><path fill="red" stroke="black" pathLength="200" stroke-width="0.3" d="M 94.11764705882354 17.647058823529406 V 23.529411764705884"></path><path fill="red" stroke="black" pathLength="200" stroke-width="0.3" d="M 94.11764705882354 11.764705882352928 V 17.647058823529406"></path><path fill="red" stroke="black" pathLength="200" stroke-width="0.3" d="M 88.23529411764707 5.882352941176464 H 94.11764705882354 M 94.11764705882354 5.882352941176464 V 11.764705882352928"></path><path fill="red" stroke="black" pathLength="200" stroke-width="0.3" d="M 88.23529411764707 0 H 94.11764705882354 M 94.11764705882354 0 V 5.882352941176464"></path><path fill="red" stroke="black" pathLength="200" stroke-width="0.3" d="M 94.11764705882354 100 H 100 M 100 94.11764705882354 V 100"></path><path fill="red" stroke="black" pathLength="200" stroke-width="0.3" d="M 100 88.23529411764706 V 94.11764705882354"></path><path fill="red" stroke="black" pathLength="200" stroke-width="0.3" d="M 100 82.35294117647058 V 88.23529411764706"></path><path fill="red" stroke="black" pathLength="200" stroke-width="0.3" d="M 100 76.47058823529412 V 82.35294117647058"></path><path fill="red" stroke="black" pathLength="200" stroke-width="0.3" d="M 100 70.58823529411765 V 76.47058823529412"></path><path fill="red" stroke="black" pathLength="200" stroke-width="0.3" d="M 100 64.70588235294117 V 70.58823529411765"></path><path fill="red" stroke="black" pathLength="200" stroke-width="0.3" d="M 100 58.8235294117647 V 64.70588235294117"></path><path fill="red" stroke="black" pathLength="200" stroke-width="0.3" d="M 100 52.94117647058823 V 58.8235294117647"></path><path fill="red" stroke="black" pathLength="200" stroke-width="0.3" d="M 94.11764705882354 47.05882352941176 H 100 M 94.11764705882354 52.94117647058823 H 100 M 100 47.05882352941176 V 52.94117647058823"></path><path fill="red" stroke="black" pathLength="200" stroke-width="0.3" d="M 100 41.17647058823529 V 47.05882352941176"></path><path fill="red" stroke="black" pathLength="200" stroke-width="0.3" d="M 100 35.29411764705881 V 41.17647058823529"></path><path fill="red" stroke="black" pathLength="200" stroke-width="0.3" d="M 100 29.411764705882348 V 35.29411764705881"></path><path fill="red" stroke="black" pathLength="200" stroke-width="0.3" d="M 100 23.529411764705884 V 29.411764705882348"></path><path fill="red" stroke="black" pathLength="200" stroke-width="0.3" d="M 100 17.647058823529406 V 23.529411764705884"></path><path fill="red" stroke="black" pathLength="200" stroke-width="0.3" d="M 100 11.764705882352928 V 17.647058823529406"></path><path fill="red" stroke="black" pathLength="200" stroke-width="0.3" d="M 100 5.882352941176464 V 11.764705882352928"></path><path fill="red" stroke="black" pathLength="200" stroke-width="0.3" d="M 94.11764705882354 0 H 100 M 100 0 V 5.882352941176464"></path></svg>